<svg xmlns="http://www.w3.org/2000/svg" viewBox="0 0 32 32" width="96" height="96">
  <rect width="32" height="32" fill="#0a0a0f"/>
  <rect x="8" y="8" width="2" height="2" fill="#00d4ff"/>
  <rect x="10" y="8" width="2" height="2" fill="#00d4ff"/>
  <rect x="20" y="8" width="2" height="2" fill="#00d4ff"/>
  <rect x="22" y="8" width="2" height="2" fill="#00d4ff"/>
  <rect x="8" y="10" width="2" height="2" fill="#00d4ff"/>
  <rect x="10" y="10" width="2" height="2" fill="#00d4ff"/>
  <rect x="20" y="10" width="2" height="2" fill="#00d4ff"/>
  <rect x="22" y="10" width="2" height="2" fill="#00d4ff"/>
  <rect x="10" y="12" width="2" height="2" fill="#00d4ff"/>
  <rect x="20" y="12" width="2" height="2" fill="#00d4ff"/>
  <rect x="8" y="14" width="2" height="2" fill="#00d4ff"/>
  <rect x="10" y="14" width="12" height="2" fill="#00d4ff"/>
  <rect x="22" y="14" width="2" height="2" fill="#00d4ff"/>
  <rect x="8" y="16" width="2" height="2" fill="#00d4ff"/>
  <rect x="22" y="16" width="2" height="2" fill="#00d4ff"/>
  <rect x="8" y="18" width="2" height="2" fill="#00d4ff"/>
  <rect x="22" y="18" width="2" height="2" fill="#00d4ff"/>
  <rect x="8" y="20" width="2" height="2" fill="#00d4ff"/>
  <rect x="10" y="20" width="2" height="2" fill="#00d4ff"/>
  <rect x="20" y="20" width="2" height="2" fill="#00d4ff"/>
  <rect x="22" y="20" width="2" height="2" fill="#00d4ff"/>
  <rect x="10" y="22" width="2" height="2" fill="#00d4ff"/>
  <rect x="12" y="22" width="2" height="2" fill="#ff00ff"/>
  <rect x="14" y="22" width="2" height="2" fill="#ff00ff"/>
  <rect x="18" y="22" width="2" height="2" fill="#ff00ff"/>
  <rect x="20" y="22" width="2" height="2" fill="#00d4ff"/>
  <rect x="10" y="24" width="2" height="2" fill="#00d4ff"/>
  <rect x="20" y="24" width="2" height="2" fill="#00d4ff"/>
  <rect x="8" y="26" width="2" height="2" fill="#00d4ff"/>
  <rect x="10" y="26" width="2" height="2" fill="#00d4ff"/>
  <rect x="20" y="26" width="2" height="2" fill="#00d4ff"/>
  <rect x="22" y="26" width="2" height="2" fill="#00d4ff"/>
  <rect x="8" y="28" width="2" height="2" fill="#00d4ff"/>
  <rect x="22" y="28" width="2" height="2" fill="#00d4ff"/>
</svg>