<svg xmlns="http://www.w3.org/2000/svg" viewBox="0 0 32 32" width="96" height="96">
  <rect width="32" height="32" fill="#0a0a0f"/>
  <rect x="14" y="6" width="4" height="2" fill="#ff6b9d"/>
  <rect x="12" y="8" width="8" height="2" fill="#ff6b9d"/>
  <rect x="8" y="10" width="16" height="2" fill="#ff6b9d"/>
  <rect x="6" y="12" width="20" height="2" fill="#ff6b9d"/>
  <rect x="6" y="14" width="4" height="2" fill="#ff6b9d"/>
  <rect x="10" y="14" width="2" height="2" fill="#fff"/>
  <rect x="13" y="14" width="2" height="2" fill="#0a0a0f"/>
  <rect x="16" y="14" width="2" height="2" fill="#0a0a0f"/>
  <rect x="19" y="14" width="2" height="2" fill="#fff"/>
  <rect x="22" y="14" width="4" height="2" fill="#ff6b9d"/>
  <rect x="6" y="16" width="20" height="2" fill="#ff6b9d"/>
  <rect x="6" y="18" width="4" height="2" fill="#ff6b9d"/>
  <rect x="22" y="18" width="4" height="2" fill="#ff6b9d"/>
  <rect x="6" y="20" width="20" height="2" fill="#ff6b9d"/>
  <rect x="8" y="22" width="4" height="2" fill="#ff6b9d"/>
  <rect x="12" y="22" width="8" height="2" fill="#c0ffee"/>
  <rect x="20" y="22" width="4" height="2" fill="#ff6b9d"/>
  <rect x="8" y="24" width="4" height="2" fill="#ff6b9d"/>
  <rect x="20" y="24" width="4" height="2" fill="#ff6b9d"/>
  <rect x="8" y="26" width="16" height="2" fill="#ff6b9d"/>
  <rect x="10" y="28" width="12" height="2" fill="#ff6b9d"/>
</svg>